<svg width="23" height="25" viewBox="0 0 23 25" fill="none" xmlns="http://www.w3.org/2000/svg">
<path fill-rule="evenodd" clip-rule="evenodd" d="M15.1838 23.3299C17.3627 22.7184 19.6438 22.41 21.8567 22.1274C22.3334 22.0682 22.7759 22.3987 22.8099 22.8645C22.878 23.3305 22.5374 23.7568 22.0948 23.816C19.95 24.088 17.7373 24.3791 15.6606 24.9677C15.218 25.0954 14.7412 24.8326 14.605 24.3805C14.4688 23.9287 14.7412 23.4579 15.1838 23.3299Z" fill="black"/>
<path fill-rule="evenodd" clip-rule="evenodd" d="M8.57954 14.6612C12.0861 11.0828 16.0353 7.96497 19.4738 4.29055C19.7802 3.94738 20.3249 3.929 20.6653 4.24936C21.0058 4.57005 21.0397 5.10932 20.6992 5.45249C17.2607 9.13746 13.3116 12.2655 9.805 15.8544C9.46456 16.1894 8.91998 16.1942 8.57954 15.8646C8.27314 15.5354 8.23909 14.9962 8.57954 14.6612Z" fill="black"/>
<path fill-rule="evenodd" clip-rule="evenodd" d="M2.00847 0.89733C1.90633 2.94544 1.8044 4.99355 1.70227 7.04201C1.70227 7.51114 1.29354 7.87337 0.816916 7.85056C0.340295 7.82741 5.14984e-05 7.42807 5.14984e-05 6.9586C0.102185 4.90708 0.204118 2.8559 0.306251 0.804728C0.340295 0.335595 0.748893 -0.0242543 1.22551 0.00127899C1.66809 0.0268123 2.04251 0.428538 2.00847 0.89733Z" fill="black"/>
</svg>
