<svg width="23" height="25" viewBox="0 0 23 25" fill="none" xmlns="http://www.w3.org/2000/svg">
<path fill-rule="evenodd" clip-rule="evenodd" d="M7.63478 23.3299C5.45594 22.7184 3.17476 22.41 0.961871 22.1274C0.485249 22.0682 0.0427376 22.3987 0.00869311 22.8645C-0.0593958 23.3305 0.281248 23.7568 0.723826 23.816C2.86863 24.088 5.08131 24.3791 7.15802 24.9677C7.6006 25.0954 8.07742 24.8326 8.2136 24.3805C8.34978 23.9287 8.07736 23.4579 7.63478 23.3299Z" fill="black"/>
<path fill-rule="evenodd" clip-rule="evenodd" d="M14.2391 14.6612C10.7325 11.0828 6.78334 7.96497 3.34485 4.29055C3.03845 3.94738 2.49374 3.929 2.15329 4.24936C1.81285 4.57005 1.77894 5.10932 2.11938 5.45249C5.55787 9.13746 9.50702 12.2655 13.0136 15.8544C13.354 16.1894 13.8986 16.1942 14.2391 15.8646C14.5455 15.5354 14.5795 14.9962 14.2391 14.6612Z" fill="black"/>
<path fill-rule="evenodd" clip-rule="evenodd" d="M20.8101 0.89733C20.9123 2.94544 21.0142 4.99355 21.1163 7.04201C21.1163 7.51114 21.5251 7.87337 22.0017 7.85056C22.4783 7.82741 22.8186 7.42807 22.8186 6.9586C22.7164 4.90708 22.6145 2.8559 22.5124 0.804728C22.4783 0.335595 22.0697 -0.0242543 21.5931 0.00127899C21.1505 0.0268123 20.7761 0.428538 20.8101 0.89733Z" fill="black"/>
</svg>
